<svg xmlns="http://www.w3.org/2000/svg" viewBox="0 0 1003.95 763.28"><defs><style>.cls-1{fill:#fbcfb4;}.cls-2{fill:#fd9e61;}</style></defs><title>Asset 4</title><g id="Layer_2" data-name="Layer 2"><g id="Layer_2-2" data-name="Layer 2"><path class="cls-1" d="M189.24,208.35A414.83,414.83,0,0,0,67.92,502c0,.53,0,1.06,0,1.59H484.05v-.45Z"/><path class="cls-1" d="M815.84,208.35A414.83,414.83,0,0,1,937.16,502c0,.53,0,1.06,0,1.59H521v-.45Z"/><path class="cls-1" d="M510.27,75.62A414.84,414.84,0,0,1,803.9,197.06c.37.38.73.76,1.11,1.14L511.2,492.87l-.31-.31Z"/><path class="cls-1" d="M494.8,75.62A414.81,414.81,0,0,0,201.18,197.06l-1.12,1.14L493.87,492.87l.32-.31Z"/><path class="cls-2" d="M50.54,503.62c-.06-3-.11-6-.11-9C50.43,248.87,252.59,49.68,502,49.68S953.53,248.87,953.53,494.59c0,3-.06,6-.12,9h50.43c0-3,.11-6,.11-9C1004,221.43,779.21,0,502,0S0,221.43,0,494.59c0,3,.06,6,.12,9Z"/><path class="cls-2" d="M104.84,730.43q21.52,0,37.62-13t17.84-32.62h38.06q-1.08,20.22-13.92,38.5T150.19,752.4a98.88,98.88,0,0,1-45.35,10.88q-48.07,0-76.46-32.08T0,643.43v-6.74q0-34.37,12.62-61.12T48.83,534q23.6-14.79,55.79-14.79,39.58,0,65.79,23.71t28,61.55H160.3Q158.56,581.66,143,567T104.62,552.3q-30.68,0-47.53,22.08T40.24,638.21v7.62q0,40.67,16.75,62.64T104.84,730.43Z"/><path class="cls-2" d="M570.88,559.69a121.19,121.19,0,0,0-19.8-1.52q-39.58,0-53.72,33.72v167H457.12V523.59h39.15l.66,27.19q19.79-31.54,56.11-31.54,11.75,0,17.84,3Z"/><path class="cls-2" d="M739.78,735.65q-23.49,27.63-68.95,27.63-37.62,0-57.31-21.86t-19.9-64.71V523.59h40.24v152q0,53.51,43.5,53.51,46.11,0,61.33-34.37V523.59h40.24V758.93H740.65Z"/><path class="cls-2" d="M963.71,696.5q0-16.31-12.28-25.34t-42.85-15.55Q878,649.09,860.07,640T833.54,618.2q-8.6-12.62-8.59-30,0-28.94,24.47-48.94t62.53-20q40,0,64.92,20.66t24.91,52.85H961.32q0-16.51-14-28.49T912,552.3q-22,0-34.37,9.57t-12.4,25q0,14.58,11.53,22T918.36,623q30.14,6.74,48.83,16.09t27.74,22.51q9,13.17,9,32.09,0,31.53-25.23,50.57t-65.47,19q-28.28,0-50-10t-34-27.95A67.29,67.29,0,0,1,816.9,686.5h40.24q1.08,20.22,16.2,32.08t39.91,11.85q22.85,0,36.65-9.24T963.71,696.5Z"/><rect class="cls-2" x="233.72" y="523.59" width="40.24" height="235.34"/><path class="cls-2" d="M385.44,722.05q-5.87-7.06-5.87-21.23V554.69H423.5v-31.1h-127v31.1h42.85V700.64q0,30,13.7,46.32t40.68,16.32A117.37,117.37,0,0,0,424.59,759V726.52q-12.18,2.61-19.14,2.61Q391.32,729.13,385.44,722.05Z"/></g></g></svg>